solid ASCII
  facet normal -1.000000e+00 0.000000e+00 0.000000e+00
    outer loop
      vertex   4.194807e+01 3.995058e+01 0.000000e+00
      vertex   4.194807e+01 -1.804942e+01 0.000000e+00
      vertex   4.194807e+01 3.995058e+01 1.500000e+00
    endloop
  endfacet
  facet normal -1.000000e+00 -0.000000e+00 0.000000e+00
    outer loop
      vertex   4.194807e+01 3.995058e+01 1.500000e+00
      vertex   4.194807e+01 -1.804942e+01 0.000000e+00
      vertex   4.194807e+01 -1.804942e+01 1.500000e+00
    endloop
  endfacet
  facet normal 0.000000e+00 1.000000e+00 -0.000000e+00
    outer loop
      vertex   4.594807e+01 3.995058e+01 0.000000e+00
      vertex   4.194807e+01 3.995058e+01 0.000000e+00
      vertex   4.594807e+01 3.995058e+01 1.500000e+00
    endloop
  endfacet
  facet normal 0.000000e+00 1.000000e+00 0.000000e+00
    outer loop
      vertex   4.594807e+01 3.995058e+01 1.500000e+00
      vertex   4.194807e+01 3.995058e+01 0.000000e+00
      vertex   4.194807e+01 3.995058e+01 1.500000e+00
    endloop
  endfacet
  facet normal 1.000000e+00 0.000000e+00 0.000000e+00
    outer loop
      vertex   4.594807e+01 -1.804942e+01 0.000000e+00
      vertex   4.594807e+01 3.995058e+01 0.000000e+00
      vertex   4.594807e+01 -1.804942e+01 1.500000e+00
    endloop
  endfacet
  facet normal 1.000000e+00 -0.000000e+00 0.000000e+00
    outer loop
      vertex   4.594807e+01 -1.804942e+01 1.500000e+00
      vertex   4.594807e+01 3.995058e+01 0.000000e+00
      vertex   4.594807e+01 3.995058e+01 1.500000e+00
    endloop
  endfacet
  facet normal 0.000000e+00 -1.000000e+00 0.000000e+00
    outer loop
      vertex   4.194807e+01 -1.804942e+01 0.000000e+00
      vertex   4.594807e+01 -1.804942e+01 0.000000e+00
      vertex   4.194807e+01 -1.804942e+01 1.500000e+00
    endloop
  endfacet
  facet normal 0.000000e+00 -1.000000e+00 0.000000e+00
    outer loop
      vertex   4.194807e+01 -1.804942e+01 1.500000e+00
      vertex   4.594807e+01 -1.804942e+01 0.000000e+00
      vertex   4.594807e+01 -1.804942e+01 1.500000e+00
    endloop
  endfacet
  facet normal 0.000000e+00 0.000000e+00 1.000000e+00
    outer loop
      vertex   4.194807e+01 -1.804942e+01 1.500000e+00
      vertex   4.594807e+01 -1.804942e+01 1.500000e+00
      vertex   4.194807e+01 3.995058e+01 1.500000e+00
    endloop
  endfacet
  facet normal -0.000000e+00 0.000000e+00 1.000000e+00
    outer loop
      vertex   4.194807e+01 3.995058e+01 1.500000e+00
      vertex   4.594807e+01 -1.804942e+01 1.500000e+00
      vertex   4.594807e+01 3.995058e+01 1.500000e+00
    endloop
  endfacet
  facet normal 0.000000e+00 0.000000e+00 -1.000000e+00
    outer loop
      vertex   4.594807e+01 -1.804942e+01 0.000000e+00
      vertex   4.194807e+01 -1.804942e+01 0.000000e+00
      vertex   4.594807e+01 3.995058e+01 0.000000e+00
    endloop
  endfacet
  facet normal -0.000000e+00 0.000000e+00 -1.000000e+00
    outer loop
      vertex   4.594807e+01 3.995058e+01 0.000000e+00
      vertex   4.194807e+01 -1.804942e+01 0.000000e+00
      vertex   4.194807e+01 3.995058e+01 0.000000e+00
    endloop
  endfacet
endsolid
